<?xml version="1.0" encoding="UTF-8" standalone="no"?>
<svg
   xmlns:dc="http://purl.org/dc/elements/1.1/"
   xmlns:cc="http://creativecommons.org/ns#"
   xmlns:rdf="http://www.w3.org/1999/02/22-rdf-syntax-ns#"
   xmlns:svg="http://www.w3.org/2000/svg"
   xmlns="http://www.w3.org/2000/svg"
   viewBox="0 0 893.33331 901.33331"
   height="901.33331"
   width="893.33331"
   xml:space="preserve"
   id="svg2"
   version="1.1"><metadata
     id="metadata8"><rdf:RDF><cc:Work
         rdf:about=""><dc:format>image/svg+xml</dc:format><dc:type
           rdf:resource="http://purl.org/dc/dcmitype/StillImage" /></cc:Work></rdf:RDF></metadata><defs
     id="defs6"><clipPath
       id="clipPath24"
       clipPathUnits="userSpaceOnUse"><path
         id="path22"
         d="M 0,676 H 670 V 0 H 0 Z" /></clipPath></defs><g
     transform="matrix(1.3333333,0,0,-1.3333333,0,901.33333)"
     id="g10"><path
       id="path12"
       style="fill:#de6159;fill-opacity:1;fill-rule:nonzero;stroke:none"
       d="m 300.9,339.9 h -85.3 v 8.5 h 85.3 z m -85.4,-17.1 h 85.3 v -25.6 h -85.3 z m -17,-42.7 H 318 v 85.3 H 198.5 Z" /><path
       id="path14"
       style="fill:#de6159;fill-opacity:1;fill-rule:nonzero;stroke:none"
       d="m 300.9,203.3 h -34.1 v 25.6 h 34.1 z m -34.2,-17 h 34.1 v -25.6 h -34.1 z m -51.2,0 h 34.1 v -25.6 h -34.1 z m 34.2,17 h -34.1 v 25.6 h 34.1 z M 198.5,143.6 H 318 V 246 H 198.5 Z" /><path
       id="path16"
       style="fill:#de6159;fill-opacity:1;fill-rule:nonzero;stroke:none"
       d="m 454.5,322.8 h -85.3 v 25.6 h 85.3 z m -85.4,-17.1 h 85.3 v -8.5 h -85.3 z m -17,-25.6 h 119.5 v 85.3 H 352.1 Z" /><g
       id="g18"><g
         clip-path="url(#clipPath24)"
         id="g20"><path
           id="path26"
           style="fill:#de6159;fill-opacity:1;fill-rule:nonzero;stroke:none"
           d="m 565.4,143.6 h 8.5 V 118 h -8.5 z m -25.6,0 h 8.5 V 118 h -8.5 z M 522.7,100.9 H 471.5 V 246 H 352.1 V 100.9 H 147.3 v 244 L 335,489.6 522.7,344.9 Z m -153.6,128 h 85.3 v -128 H 369.1 Z M 121.7,143.6 h 8.5 V 118 h -8.5 z m -25.6,0 h 8.5 V 118 h -8.5 z m 7.7,209 c -3.3,3.5 -4.9,8.1 -4.5,13 0.4,4.9 2.7,9.1 6.5,12.1 l 217.6,170.1 11.6,10.8 12.2,-11.3 217,-169.8 c 3.8,-3 6.1,-7.3 6.5,-12.1 0.4,-4.8 -1.2,-9.4 -4.5,-13 -6,-6.5 -15.9,-7.3 -22.9,-1.9 l -3.4,2.6 L 335,511.2 133.5,355.9 l -6.7,-5.2 c -7.1,-5.5 -16.9,-4.6 -23,1.9 M 582.5,177.7 c -4.7,0 -8.5,-3.8 -8.5,-8.5 v -8.5 h -8.5 v 8.5 c 0,4.7 -3.8,8.5 -8.5,8.5 -4.7,0 -8.5,-3.8 -8.5,-8.5 v -8.5 H 540 v 172.4 c 4.4,-2 9.2,-3.1 13.9,-3.1 9.2,0 18.3,3.7 25,11 6.5,7 9.8,16.4 9,25.9 -0.8,9.5 -5.5,18.3 -13,24.2 L 358.2,560.4 335,581.9 312.3,560.8 95.3,391 c -7.5,-5.9 -12.2,-14.7 -13,-24.2 -0.8,-9.5 2.5,-18.9 9,-25.9 10.2,-11 25.8,-13.7 38.9,-7.9 V 160.6 h -8.5 v 8.5 c 0,4.7 -3.8,8.5 -8.5,8.5 -4.7,0 -8.5,-3.8 -8.5,-8.5 v -8.5 h -8.5 v 8.5 c 0,4.7 -3.8,8.5 -8.5,8.5 -4.7,0 -8.7,-3.7 -8.7,-8.4 V 92.4 c 0,-4.7 3.8,-8.5 8.5,-8.5 4.7,0 8.5,3.8 8.5,8.5 v 8.5 h 8.5 v -8.5 c 0,-4.7 3.8,-8.5 8.5,-8.5 4.7,0 8.5,3.8 8.5,8.5 v 8.5 h 8.5 v -17 h 221.9 119.5 68.3 v 17 h 8.5 v -8.5 c 0,-4.7 3.8,-8.5 8.5,-8.5 4.7,0 8.5,3.8 8.5,8.5 v 8.5 h 8.5 v -8.5 c 0,-4.7 3.8,-8.5 8.5,-8.5 4.7,0 8.5,3.8 8.5,8.5 v 76.8 c 0.3,4.7 -3.5,8.5 -8.2,8.5" /><g
           transform="translate(334,628)"
           id="g28"><path
             id="path30"
             style="fill:none;stroke:#de6159;stroke-width:17;stroke-linecap:butt;stroke-linejoin:miter;stroke-miterlimit:10;stroke-dasharray:none;stroke-opacity:1"
             d="M 0,0 2,-590" /></g></g></g></g></svg>