<?xml version="1.0" encoding="utf-8"?>
<!-- Generator: Adobe Illustrator 21.0.2, SVG Export Plug-In . SVG Version: 6.00 Build 0)  -->
<svg version="1.1" id="Layer_1" xmlns="http://www.w3.org/2000/svg" xmlns:xlink="http://www.w3.org/1999/xlink" x="0px" y="0px"
	 viewBox="0 0 512 512" style="enable-background:new 0 0 512 512;" xml:space="preserve">
<style type="text/css">
	.st0{fill:#FCFCFC;stroke:#DE6159;stroke-width:16;stroke-miterlimit:10;}
	.st1{fill:none;stroke:#DE6159;stroke-width:16;stroke-miterlimit:10;}
</style>
<g id="Слой_1_1_">
	<path class="st0" d="M261,465.2H65c-22.3,0-40.4-18.1-40.4-40.4V287.6c0-22.3,18.1-40.4,40.4-40.4h196c22.3,0,40.4,18.1,40.4,40.4
		v137.3C301.4,447.1,283.3,465.2,261,465.2z"/>
	<line class="st1" x1="126.5" y1="464.1" x2="127.9" y2="252.2"/>
	<line class="st1" x1="197.8" y1="462.7" x2="198.9" y2="250.8"/>
	<path class="st0" d="M161.6,301.5"/>
	<line class="st1" x1="94.2" y1="247.2" x2="94.2" y2="465.2"/>
	<line class="st1" x1="231.8" y1="250.6" x2="231.8" y2="464.1"/>
	<path class="st0" d="M172.2,307.9h-18.7c-13.9,0-25.6-11.4-25.6-25.6v-81.9c0-13.9,11.4-25.6,25.6-25.6h18.7
		c13.9,0,25.6,11.4,25.6,25.6v81.9C197.8,296.2,186.4,307.9,172.2,307.9z"/>
	<path class="st0" d="M165.8,227.5h-3.1c-34.2,0-62.4-28.1-62.4-62.4V132c0-34.2,28.1-62.4,62.4-62.4h3.1
		c34.2,0,62.4,28.1,62.4,62.4v33.1C227.9,199.3,199.8,227.5,165.8,227.5z"/>
	<path class="st0" d="M165.2,120.5"/>
	<path class="st0" d="M80.6,147c55.4-0.6,110.8-1.1,166.2-1.9c0-5.3-0.8-35.9-25.9-59.3c-3.6-3.3-25.3-23.1-58.5-22.3
		c-25.6,0.6-44,13.1-52.3,20.3c-2.2,1.7-3.6,3.3-4.2,3.6C98.4,94.4,84.2,111.4,80.6,147z"/>
	<g>
		<path class="st0" d="M148.2,104.4c0-21.2,0-55.1,0-55.1c0-4.5,3.6-7.8,7.8-7.8h15.9c4.5,0,7.8,3.6,7.8,7.8c0,0,0,34.2,0,55.1"/>
		<path class="st0" d="M148.2,104.4c0-21.2,0-55.1,0-55.1c0-4.5,3.6-7.8,7.8-7.8h15.9c4.5,0,7.8,3.6,7.8,7.8c0,0,0,34.2,0,55.1"/>
	</g>
	<line class="st1" x1="259.3" y1="145" x2="67.5" y2="147.8"/>
</g>
<g id="Слой_2">
	<g>
		<line class="st1" x1="431.1" y1="239.7" x2="490.7" y2="470"/>
		<line class="st1" x1="431.1" y1="239.7" x2="490.7" y2="470"/>
	</g>
	<g>
		<path class="st1" d="M383,62.6c-15.3,0-27.8,12.5-27.8,27.8v87.4c0,15.3,12.5,27.8,27.8,27.8h40.9c15.3,0,27.6-12.5,27.6-27.8
			l-1.1-87.7c-0.3-15.3-12.8-27.8-28.1-27.8H383L383,62.6L383,62.6z"/>
	</g>
	<g>
		<ellipse class="st1" cx="403.6" cy="105.5" rx="14.8" ry="14.2"/>
	</g>
	<g>
		<ellipse class="st1" cx="403.6" cy="163.7" rx="14.8" ry="14.2"/>
	</g>
	<g>
		<path class="st1" d="M364.6,201.3c0,0,0,5.3,0,11.7c0,6.4,7.2,11.7,15.9,11.7h46.2c8.6,0,15.9-6.1,15.9-13.4s0-13.4,0-13.4"/>
	</g>
	<g>
		<path class="st1" d="M374.6,224.7c0,0,0,4.7,0,10.9s7.2,10.9,15.9,10.9h27.8c8.6,0,15.6-4.7,15.3-10.9s-0.6-10.9-0.6-10.9"/>
	</g>
	<g>
		<line class="st1" x1="378.2" y1="243.9" x2="320.3" y2="470"/>
		<line class="st1" x1="378.2" y1="243.9" x2="320.3" y2="470"/>
	</g>
	<g>
		<path class="st1" d="M405.2,249.7"/>
	</g>
	<line class="st1" x1="405.8" y1="248.3" x2="405.8" y2="470.5"/>
</g>
</svg>
