<?xml version="1.0" encoding="UTF-8" standalone="no"?>
<svg
   xmlns:dc="http://purl.org/dc/elements/1.1/"
   xmlns:cc="http://creativecommons.org/ns#"
   xmlns:rdf="http://www.w3.org/1999/02/22-rdf-syntax-ns#"
   xmlns:svg="http://www.w3.org/2000/svg"
   xmlns="http://www.w3.org/2000/svg"
   viewBox="0 0 682.66669 682.66669"
   height="682.66669"
   width="682.66669"
   xml:space="preserve"
   id="svg2"
   version="1.1"><metadata
     id="metadata8"><rdf:RDF><cc:Work
         rdf:about=""><dc:format>image/svg+xml</dc:format><dc:type
           rdf:resource="http://purl.org/dc/dcmitype/StillImage" /></cc:Work></rdf:RDF></metadata><defs
     id="defs6"><clipPath
       id="clipPath18"
       clipPathUnits="userSpaceOnUse"><path
         id="path16"
         d="M 0,512 H 512 V 0 H 0 Z" /></clipPath></defs><g
     transform="matrix(1.3333333,0,0,-1.3333333,0,682.66667)"
     id="g10"><g
       id="g12"><g
         clip-path="url(#clipPath18)"
         id="g14"><g
           transform="translate(23.9,405.9)"
           id="g20"><path
             id="path22"
             style="fill:#de6159;fill-opacity:1;fill-rule:nonzero;stroke:none"
             d="m 0,0 32.2,52.7 c 10.8,17.6 30.3,28.6 51,28.6 h 1.5 l 29.7,-0.7 c 7.2,-0.2 14.1,-2.1 20.2,-5.3 L 127.1,-37.9 -11.6,-29 C -9.5,-18.9 -5.5,-9 0,0 m 155.3,51.9 11.8,-29.6 c 2.3,-5.7 7.7,-9.4 13.9,-9.4 4.2,0 8.1,1.7 11,4.9 l 7,7.7 c 1.1,1.2 2.5,1.4 3.2,1.4 1.6,0 3,-0.8 3.7,-2.2 L 216.3,6.4 c 8.9,-15.5 25.4,-25.1 43.3,-25.1 4.9,0 9.7,0.7 14.4,2.1 l 2.9,-67.6 -142.8,3.3 10,149.2 c 4.8,-4.4 8.7,-10 11.2,-16.4 M 335,4 c 6.6,2.2 13.2,4.8 19.5,7.7 l 51.9,23.9 c 5.2,2.4 10.8,3.6 16.6,3.6 5.2,0 10.3,-1 15.2,-3 3.2,-1.3 5.7,-4 6.8,-7.3 1.1,-3.3 0.7,-7 -1.1,-10 l -1.5,-2.6 c -5.3,-8.7 -6,-19.6 -2.1,-29 l 34.8,-82.8 c 8,-19.1 -0.4,-40.9 -19.3,-49.5 l -65.9,-30.2 c -0.7,-0.3 -1.3,-0.8 -1.8,-1.4 l -59.5,-74.1 c -3.5,-4.3 -8.7,-6.8 -14.2,-6.8 -2.9,0 -5.8,0.7 -8.4,2.1 -3.6,1.9 -7.7,3 -11.7,3.3 l -10.1,238.9 z m -61.5,-262.8 -38.1,-31.6 c -3.7,-3.1 -9,-4 -13.5,-2.3 l -21.2,7.9 c -3.6,1.3 -6.4,4 -7.8,7.6 -1.5,3.5 -1.4,7.4 0.2,10.9 4.9,10.6 1.4,22.9 -8.2,29.5 l -18,12.2 4.4,132.8 106,-2.5 6.7,-159 c -3.7,-1 -7.3,-2.9 -10.5,-5.5 m -132.1,45.7 v 0 c -12.3,0 -23.3,-7.8 -27.2,-19.5 l -16.6,-49.1 -5.6,28.4 c -1.5,7.6 -8.1,13 -15.8,13 -0.9,0 -1.9,-0.1 -2.8,-0.2 -3.2,-0.6 -6.4,1.6 -7,4.7 l -12.8,58.4 c -0.1,0.6 -0.4,1.2 -0.8,1.8 l -50.1,72.9 c -11.5,16.8 -17.4,37.2 -16.5,57.5 0.1,2.1 0.2,4.1 0.5,6.2 l 139.6,-9 -2.5,-37.3 c -0.1,-1.4 0.4,-2.7 1.3,-3.7 0.9,-1 2.2,-1.6 3.6,-1.6 l 32.7,-0.8 -4.2,-126.5 c -4.7,3.1 -10.2,4.8 -15.8,4.8 m -146.9,104.7 49.5,-72 12.5,-57.5 c 1.6,-7.4 8.2,-12.7 15.8,-12.7 0.9,0 1.9,0.1 2.8,0.2 3.3,0.6 6.4,-1.6 7.1,-4.9 l 9.2,-46.9 c 0.4,-2.2 2.3,-3.9 4.6,-4 2.2,-0.1 4.4,1.2 5.1,3.4 l 22.6,67 c 2.6,7.6 9.7,12.7 17.7,12.7 3.7,0 7.3,-1.1 10.4,-3.2 l 27.6,-18.7 c 5.5,-3.8 7.5,-10.9 4.7,-17 -2.7,-6 -2.9,-12.8 -0.4,-18.9 2.5,-6.1 7.4,-10.9 13.6,-13.2 l 21.2,-7.9 c 2.7,-1 5.5,-1.5 8.3,-1.5 5.5,0 10.9,1.9 15.1,5.5 l 38.1,31.6 c 3.5,2.9 7.9,4.5 12.4,4.5 3.1,0 6.2,-0.8 9,-2.2 4,-2.1 8.5,-3.2 13,-3.2 8.6,0 16.7,3.9 22.1,10.6 l 58.7,73.1 64.8,29.7 c 23.8,10.9 34.5,38.4 24.4,62.5 l -34.8,82.8 c -2.7,6.5 -2.2,13.9 1.4,20 l 1.5,2.6 c 3.3,5.5 4,12.2 2,18.3 -2,6.1 -6.6,11 -12.5,13.5 -6.1,2.5 -12.5,3.8 -19,3.8 -7.2,0 -14.2,-1.5 -20.8,-4.6 L 350.3,21.1 c -6,-2.8 -12.2,-5.2 -18.5,-7.4 l -59.3,-20 c -4.1,-1.4 -8.4,-2.1 -12.7,-2.1 -14.3,0 -27.5,7.7 -34.6,20.1 L 214.8,30 c -2.5,4.4 -7.3,7.2 -12.4,7.2 -4,0 -7.8,-1.7 -10.6,-4.7 l -7,-7.7 c -0.9,-1 -2.2,-1.6 -3.6,-1.6 -1.6,0 -3.7,0.8 -4.6,3.1 l -11.8,29.6 c -8.2,20.6 -27.9,34.3 -50.1,34.8 L 85,91.4 H 83.3 C 59.2,91.4 36.4,78.6 23.8,58 L -8.4,5.3 c -9.2,-15.1 -14.5,-32.4 -15.2,-50 -1.2,-22.6 5.3,-45.2 18.1,-63.7" /></g><g
           transform="translate(23.9,405.9)"
           id="g24"><path
             id="path26"
             style="fill:none;stroke:#de6159;stroke-width:5;stroke-linecap:butt;stroke-linejoin:miter;stroke-miterlimit:10;stroke-dasharray:none;stroke-opacity:1"
             d="m 0,0 32.2,52.7 c 10.8,17.6 30.3,28.6 51,28.6 h 1.5 l 29.7,-0.7 c 7.2,-0.2 14.1,-2.1 20.2,-5.3 L 127.1,-37.9 -11.6,-29 C -9.5,-18.9 -5.5,-9 0,0 Z m 155.3,51.9 11.8,-29.6 c 2.3,-5.7 7.7,-9.4 13.9,-9.4 4.2,0 8.1,1.7 11,4.9 l 7,7.7 c 1.1,1.2 2.5,1.4 3.2,1.4 1.6,0 3,-0.8 3.7,-2.2 L 216.3,6.4 c 8.9,-15.5 25.4,-25.1 43.3,-25.1 4.9,0 9.7,0.7 14.4,2.1 l 2.9,-67.6 -142.8,3.3 10,149.2 c 4.8,-4.4 8.7,-10 11.2,-16.4 z M 335,4 c 6.6,2.2 13.2,4.8 19.5,7.7 l 51.9,23.9 c 5.2,2.4 10.8,3.6 16.6,3.6 5.2,0 10.3,-1 15.2,-3 3.2,-1.3 5.7,-4 6.8,-7.3 1.1,-3.3 0.7,-7 -1.1,-10 l -1.5,-2.6 c -5.3,-8.7 -6,-19.6 -2.1,-29 l 34.8,-82.8 c 8,-19.1 -0.4,-40.9 -19.3,-49.5 l -65.9,-30.2 c -0.7,-0.3 -1.3,-0.8 -1.8,-1.4 l -59.5,-74.1 c -3.5,-4.3 -8.7,-6.8 -14.2,-6.8 -2.9,0 -5.8,0.7 -8.4,2.1 -3.6,1.9 -7.7,3 -11.7,3.3 l -10.1,238.9 z m -61.5,-262.8 -38.1,-31.6 c -3.7,-3.1 -9,-4 -13.5,-2.3 l -21.2,7.9 c -3.6,1.3 -6.4,4 -7.8,7.6 -1.5,3.5 -1.4,7.4 0.2,10.9 4.9,10.6 1.4,22.9 -8.2,29.5 l -18,12.2 4.4,132.8 106,-2.5 6.7,-159 c -3.7,-1 -7.3,-2.9 -10.5,-5.5 z m -132.1,45.7 v 0 c -12.3,0 -23.3,-7.8 -27.2,-19.5 l -16.6,-49.1 -5.6,28.4 c -1.5,7.6 -8.1,13 -15.8,13 -0.9,0 -1.9,-0.1 -2.8,-0.2 -3.2,-0.6 -6.4,1.6 -7,4.7 l -12.8,58.4 c -0.1,0.6 -0.4,1.2 -0.8,1.8 l -50.1,72.9 c -11.5,16.8 -17.4,37.2 -16.5,57.5 0.1,2.1 0.2,4.1 0.5,6.2 l 139.6,-9 -2.5,-37.3 c -0.1,-1.4 0.4,-2.7 1.3,-3.7 0.9,-1 2.2,-1.6 3.6,-1.6 l 32.7,-0.8 -4.2,-126.5 c -4.7,3.1 -10.2,4.8 -15.8,4.8 z m -146.9,104.7 49.5,-72 12.5,-57.5 c 1.6,-7.4 8.2,-12.7 15.8,-12.7 0.9,0 1.9,0.1 2.8,0.2 3.3,0.6 6.4,-1.6 7.1,-4.9 l 9.2,-46.9 c 0.4,-2.2 2.3,-3.9 4.6,-4 2.2,-0.1 4.4,1.2 5.1,3.4 l 22.6,67 c 2.6,7.6 9.7,12.7 17.7,12.7 3.7,0 7.3,-1.1 10.4,-3.2 l 27.6,-18.7 c 5.5,-3.8 7.5,-10.9 4.7,-17 -2.7,-6 -2.9,-12.8 -0.4,-18.9 2.5,-6.1 7.4,-10.9 13.6,-13.2 l 21.2,-7.9 c 2.7,-1 5.5,-1.5 8.3,-1.5 5.5,0 10.9,1.9 15.1,5.5 l 38.1,31.6 c 3.5,2.9 7.9,4.5 12.4,4.5 3.1,0 6.2,-0.8 9,-2.2 4,-2.1 8.5,-3.2 13,-3.2 8.6,0 16.7,3.9 22.1,10.6 l 58.7,73.1 64.8,29.7 c 23.8,10.9 34.5,38.4 24.4,62.5 l -34.8,82.8 c -2.7,6.5 -2.2,13.9 1.4,20 l 1.5,2.6 c 3.3,5.5 4,12.2 2,18.3 -2,6.1 -6.6,11 -12.5,13.5 -6.1,2.5 -12.5,3.8 -19,3.8 -7.2,0 -14.2,-1.5 -20.8,-4.6 L 350.3,21.1 c -6,-2.8 -12.2,-5.2 -18.5,-7.4 l -59.3,-20 c -4.1,-1.4 -8.4,-2.1 -12.7,-2.1 -14.3,0 -27.5,7.7 -34.6,20.1 L 214.8,30 c -2.5,4.4 -7.3,7.2 -12.4,7.2 -4,0 -7.8,-1.7 -10.6,-4.7 l -7,-7.7 c -0.9,-1 -2.2,-1.6 -3.6,-1.6 -1.6,0 -3.7,0.8 -4.6,3.1 l -11.8,29.6 c -8.2,20.6 -27.9,34.3 -50.1,34.8 L 85,91.4 H 83.3 C 59.2,91.4 36.4,78.6 23.8,58 L -8.4,5.3 c -9.2,-15.1 -14.5,-32.4 -15.2,-50 -1.2,-22.6 5.3,-45.2 18.1,-63.7 z" /></g></g></g></g></svg>