<?xml version="1.0"?>
<svg xmlns="http://www.w3.org/2000/svg" height="512px" viewBox="-20 0 512 512" width="512px"><g><path d="m77.714844 96.207031c5.523437 0 10-4.476562 10-10v-8.015625h13.460937v38.5h-3.820312c-5.523438 0-10 4.476563-10 10 0 5.523438 4.476562 10 10 10h27.429687c5.523438 0 10-4.476562 10-10 0-5.523437-4.476562-10-10-10h-3.609375v-38.5h13.457031v8.015625c0 5.523438 4.476563 10 10 10 5.523438 0 10-4.476562 10-10v-18.015625c0-5.523437-4.476562-10-10-10h-66.917968c-5.523438 0-10 4.476563-10 10v18.015625c0 5.523438 4.476562 10 10 10zm0 0" data-original="#000000" class="active-path" data-old_color="#000000" fill="#DE6159"/><path d="m195.480469 78.191406h128.089843c5.519532 0 10-4.476562 10-10 0-5.523437-4.480468-10-10-10h-128.089843c-5.523438 0-10 4.476563-10 10 0 5.523438 4.476562 10 10 10zm0 0" data-original="#000000" class="active-path" data-old_color="#000000" fill="#DE6159"/><path d="m195.480469 133.558594h128.089843c5.519532 0 10-4.480469 10-10 0-5.523438-4.480468-10-10-10h-128.089843c-5.523438 0-10 4.476562-10 10 0 5.519531 4.476562 10 10 10zm0 0" data-original="#000000" class="active-path" data-old_color="#000000" fill="#DE6159"/><path d="m323.9375 168.921875h-245.855469c-5.523437 0-10 4.476563-10 10s4.476563 10 10 10h245.855469c5.519531 0 10-4.476563 10-10s-4.476562-10-10-10zm0 0" data-original="#000000" class="active-path" data-old_color="#000000" fill="#DE6159"/><path d="m299.167969 224.285156h-220.71875c-5.519531 0-10 4.476563-10 10 0 5.523438 4.480469 10 10 10h220.71875c5.523437 0 10-4.476562 10-10 0-5.523437-4.476563-10-10-10zm0 0" data-original="#000000" class="active-path" data-old_color="#000000" fill="#DE6159"/><path d="m278.363281 279.648438h-199.546875c-5.519531 0-10 4.480468-10 10 0 5.523437 4.480469 10 10 10h199.546875c5.523438 0 10-4.476563 10-10 0-5.519532-4.476562-10-10-10zm0 0" data-original="#000000" class="active-path" data-old_color="#000000" fill="#DE6159"/><path d="m277.363281 341.679688h-100.453125c-5.523437 0-10 4.476562-10 10 0 5.523437 4.476563 10 10 10h90.453125v76.996093h-179.648437v-76.996093h8.652344c5.523437 0 10-4.476563 10-10 0-5.523438-4.476563-10-10-10h-18.652344c-5.523438 0-10 4.476562-10 10v96.996093c0 5.519531 4.476562 10 10 10h199.648437c5.523438 0 10-4.480469 10-10v-96.996093c0-5.523438-4.476562-10-10-10zm0 0" data-original="#000000" class="active-path" data-old_color="#000000" fill="#DE6159"/><path d="m429.589844 381.730469v-14.5625c25.417968-12.464844 42.964844-38.605469 42.964844-68.773438 0-39.292969-29.769532-71.753906-67.933594-76.054687v-212.339844c0-5.523438-4.480469-10-10-10h-384.621094c-5.523438 0-10 4.476562-10 10v492c0 5.523438 4.476562 10 10 10h395.757812c5.519532 0 10-4.476562 10-10v-23.425781l11.253907-10.910157c1.964843-1.902343 3.0625-4.53125 3.039062-7.269531-.027343-2.738281-1.175781-5.347656-3.175781-7.214843l-11.117188-10.390626v-6.15625l17.652344-14.886718c2.195313-1.847656 3.488282-4.550782 3.554688-7.421875.0625-2.867188-1.105469-5.625-3.214844-7.570313l-13.257812-12.238281 5.886718-5.445313c2.046875-1.890624 3.210938-4.550781 3.210938-7.339843zm22.964844-83.335938c0 26.304688-18.054688 48.476563-42.421876 54.765625-12.652343 3.164063-26.105468 2.050782-37.949218-3.472656-10.46875-4.882812-19.328125-12.996094-25.125-22.984375-6.558594-11.304687-9.007813-24.796875-6.824219-37.6875 2.027344-11.957031 7.929687-23.070313 16.691406-31.460937 8.996094-8.609376 20.8125-14.167969 33.222657-15.402344 1.945312-.191406 3.902343-.3125 5.855468-.3125 31.179688.003906 56.550782 25.375 56.550782 56.554687zm-432.554688 193.605469v-472h364.621094v202.683594c-2.609375.386718-5.203125.921875-7.757813 1.582031-13.136719 3.371094-25.195312 10.195313-34.996093 20.003906-11.613282 11.617188-19.027344 26.316407-21.496094 42.25-1.238282 7.816407-1.226563 15.875-.011719 23.691407 3.726563 24.226562 18.777344 45.171874 40.820313 56.386718v115.121094c0 1.792969.480468 3.546875 1.394531 5.089844l3.066406 5.191406zm379.308594-67.660156c-2.25 1.898437-3.550782 4.695312-3.550782 7.644531v15.148437c0 2.769532 1.148438 5.417969 3.171876 7.308594l6.613281 6.179688-6.746094 6.542968c-1.945313 1.882813-3.039063 4.472657-3.039063 7.179688v17.65625h-6.882812l-2.378906-4.023438-5.316406-8.992187v-105.460937c3.550781.699218 7.175781 1.136718 10.824218 1.324218 5.859375.300782 11.804688-.058594 17.585938-1.09375v3.601563l-10.625 9.820312c-2.046875 1.894531-3.210938 4.558594-3.210938 7.347657.003906 2.789062 1.167969 5.453124 3.21875 7.34375l12.882813 11.894531zm0 0" data-original="#000000" class="active-path" data-old_color="#000000" fill="#DE6159"/><path d="m367.183594 284.050781c0 16.519531 13.441406 29.960938 29.964844 29.960938 16.523437 0 29.960937-13.441407 29.960937-29.960938 0-16.523437-13.4375-29.964843-29.960937-29.964843-16.523438 0-29.964844 13.441406-29.964844 29.964843zm29.964844-9.964843c5.492187 0 9.960937 4.46875 9.960937 9.964843 0 5.492188-4.46875 9.960938-9.960937 9.960938-5.496094 0-9.964844-4.46875-9.964844-9.960938 0-5.496093 4.46875-9.964843 9.964844-9.964843zm0 0" data-original="#000000" class="active-path" data-old_color="#000000" fill="#DE6159"/><path d="m129.035156 357.230469c2.292969 3.5 6.765625 5.175781 10.800782 4.128906 4.035156-1.046875 7.023437-4.558594 7.460937-8.703125.429687-4.117188-1.894531-8.199219-5.621094-9.976562-3.683593-1.757813-8.179687-1.09375-11.164062 1.703124-3.535157 3.308594-4.152344 8.828126-1.476563 12.847657zm0 0" data-original="#000000" class="active-path" data-old_color="#000000" fill="#DE6159"/></g> </svg>
